<?xml version="1.0" encoding="utf-8"?>
<!-- Generator: Adobe Illustrator 16.0.0, SVG Export Plug-In . SVG Version: 6.00 Build 0)  -->
<!DOCTYPE svg PUBLIC "-//W3C//DTD SVG 1.1//EN" "http://www.w3.org/Graphics/SVG/1.1/DTD/svg11.dtd">
<svg version="1.1" id="Layer_1" xmlns="http://www.w3.org/2000/svg" xmlns:xlink="http://www.w3.org/1999/xlink" x="0px" y="0px"
	 width="800px" height="800px" viewBox="0 0 800 800" enable-background="new 0 0 800 800" xml:space="preserve">
<g id="_x33_43._Playlist_1_">
	<g>
		<path fill="#FFFFFF" d="M130.244,99.665l-97.453-60.87C13.015,26.391-3.04,35.292-3.04,58.645v126.811
			c0,23.354,16.055,32.23,35.831,19.875l97.453-60.883C150.02,132.093,150.02,111.997,130.244,99.665z M757.92,58.645H250.605
			c-23.353,0-42.265,18.927-42.265,42.266v42.278c0,23.341,18.912,42.266,42.265,42.266H757.92
			c23.327,0,42.268-18.925,42.268-42.266v-42.278C800.188,77.571,781.273,58.645,757.92,58.645z M32.791,459.013l97.453-60.895
			c19.775-12.38,18.89-30.875-1.999-41.317l-93.459-46.729c-20.91-10.457-37.826,0.011-37.826,23.339v105.702
			C-3.04,462.49,13.015,471.367,32.791,459.013z M757.92,312.278H250.605c-23.353,0-42.265,18.938-42.265,42.29v42.267
			c0,23.34,18.912,42.278,42.265,42.278H757.92c23.327,0,42.268-18.938,42.268-42.278v-42.267
			C800.188,331.216,781.273,312.278,757.92,312.278z M130.244,606.968l-97.453-60.882C13.015,533.682-3.04,542.597-3.04,565.935
			v126.836c0,23.327,16.055,32.242,35.831,19.839l97.453-60.847C150.02,639.419,150.02,619.323,130.244,606.968z M757.92,565.935
			H250.605c-23.353,0-42.265,18.938-42.265,42.267v42.291c0,23.315,18.912,42.278,42.265,42.278H757.92
			c23.327,0,42.268-18.963,42.268-42.278v-42.291C800.188,584.873,781.273,565.935,757.92,565.935z"/>
	</g>
</g>
</svg>
