<?xml version="1.0" encoding="utf-8"?>
<!-- Generator: Adobe Illustrator 16.0.0, SVG Export Plug-In . SVG Version: 6.00 Build 0)  -->
<!DOCTYPE svg PUBLIC "-//W3C//DTD SVG 1.1//EN" "http://www.w3.org/Graphics/SVG/1.1/DTD/svg11.dtd">
<svg version="1.1" xmlns="http://www.w3.org/2000/svg" xmlns:xlink="http://www.w3.org/1999/xlink" x="0px" y="0px" width="1122px"
	 height="1122px" viewBox="0 0 1122 1122" enable-background="new 0 0 1122 1122" xml:space="preserve">
<g id="Bg">
</g>
<g id="Object">
	<g>
		<g id="XMLID_1_">
			<g>
				<polygon fill="#FFFFFF" points="918.48,549.88 749.07,674.86 749.07,609.62 617.46,609.62 617.46,489.35 749.07,489.35 
					749.07,424.1 				"/>
				<path fill="#FFFFFF" d="M734.33,627.14V813.49c0,4.26-1.72,8.43-4.74,11.43c-2.99,3.03-7.16,4.75-11.41,4.75H617.46v-32.34
					h84.55V627.14H734.33z"/>
				<path fill="#FFFFFF" d="M734.33,308.51v162.34h-32.32V324.66h-84.55v-32.33h100.72c4.25,0,8.42,1.73,11.41,4.74
					C732.61,300.08,734.33,304.25,734.33,308.51z"/>
				<path d="M546.95,589.38c-8.92,0-16.16-12.729-16.16-28.39c0-15.68,7.24-28.37,16.16-28.37c8.94,0,16.17,12.69,16.17,28.37
					C563.12,576.65,555.89,589.38,546.95,589.38z"/>
				<path fill="#FFFFFF" d="M530.79,560.99c0,15.66,7.24,28.39,16.16,28.39c8.94,0,16.17-12.729,16.17-28.39
					c0-15.68-7.23-28.37-16.17-28.37C538.03,532.62,530.79,545.311,530.79,560.99z M603.77,294.68v532.65
					c0,6.14-2.71,11.95-7.43,15.9c-4.7,3.97-10.899,5.609-16.96,4.52l-216.74-38.61c-9.93-1.77-17.12-10.34-17.12-20.43V313.84
					c0-10.76,8.2-19.72,18.93-20.66L581.19,274c5.84-0.51,11.54,1.42,15.859,5.38C601.36,283.33,603.77,288.82,603.77,294.68z"/>
			</g>
			<g>
				<path fill="none" stroke="#FFFFFF" stroke-miterlimit="10" d="M364.45,293.18c-10.73,0.94-18.93,9.9-18.93,20.66v474.87
					c0,10.09,7.19,18.66,17.12,20.43l216.74,38.61c6.061,1.09,12.26-0.55,16.96-4.52c4.72-3.95,7.43-9.761,7.43-15.9V294.68
					c0-5.859-2.409-11.35-6.72-15.3c-4.319-3.96-10.02-5.89-15.859-5.38L364.45,293.18z"/>
				<polygon fill="none" stroke="#FFFFFF" stroke-miterlimit="10" points="918.48,549.88 749.07,424.1 749.07,489.35 617.46,489.35 
					617.46,609.62 749.07,609.62 749.07,674.86 				"/>
				<path fill="none" stroke="#FFFFFF" stroke-miterlimit="10" d="M530.79,560.99c0,15.66,7.24,28.39,16.16,28.39
					c8.94,0,16.17-12.729,16.17-28.39c0-15.68-7.23-28.37-16.17-28.37C538.03,532.62,530.79,545.311,530.79,560.99z"/>
				<path fill="none" stroke="#FFFFFF" stroke-miterlimit="10" d="M734.33,470.85V308.51c0-4.26-1.72-8.43-4.74-11.439
					c-2.99-3.01-7.16-4.74-11.41-4.74H617.46v32.33h84.55V470.85H734.33z"/>
				<path fill="none" stroke="#FFFFFF" stroke-miterlimit="10" d="M617.46,797.33v32.34h100.72c4.25,0,8.42-1.72,11.41-4.75
					c3.021-3,4.74-7.17,4.74-11.43V627.14h-32.32v170.19H617.46z"/>
			</g>
		</g>
	</g>
</g>
</svg>
