<?xml version="1.0" encoding="utf-8"?>
<!-- Generator: Adobe Illustrator 16.0.0, SVG Export Plug-In . SVG Version: 6.00 Build 0)  -->
<!DOCTYPE svg PUBLIC "-//W3C//DTD SVG 1.1//EN" "http://www.w3.org/Graphics/SVG/1.1/DTD/svg11.dtd">
<svg version="1.1" id="Layer_1" xmlns="http://www.w3.org/2000/svg" xmlns:xlink="http://www.w3.org/1999/xlink" x="0px" y="0px"
	 width="800px" height="800px" viewBox="0 0 800 800" enable-background="new 0 0 800 800" xml:space="preserve">
<g id="XMLID_1_">
	<g>
		<path fill="#FFFFFF" d="M419.76,509.56c-4.09,4.24-8.37,8.33-13.029,11.671c-18.771,13.439-30.291,7.289-50.74,10.59
			c-19.77,3.189-26.14,13.93-26.57,33.14c-0.36,16.29,4.17,28.74-4.29,43.92c-8.46,15.17-23.94,28.75-35.74,41.43
			c-14.35,15.431-29.11,30.5-43.93,45.48c-9.46,9.58-19.01,19.08-28.53,28.61c-10.78,10.779-10.62,14.22-26.56,12.08
			c-26.4-3.53-56.83-42.721-74.68-62.421c-11.06-12.21-29.81-28.13-26.54-45.909c3-16.37,34.43-43.91,45.98-57.181
			c25.14-28.92,60.41-74.34,100.44-77.739c20.03-1.69,41.24-1.021,48.65-23.75c5.64-15.921-0.08-30.16,3.75-45.431
			c2.38-9.49,9.88-18.02,17.43-25.49C345.59,433.41,383.18,470.95,419.76,509.56z"/>
		<path fill="#FFFFFF" d="M406.46,441.36c-3.54,3.439-7.07,6.88-10.6,10.319c-9.03-9.069-18.17-18.02-27.41-26.88
			c3.73-3.7,7.46-7.399,11.19-11.1C388.58,422.92,397.53,432.14,406.46,441.36z"/>
		<path fill="#FFFFFF" d="M759.01,57.09c10.53,10.54,16.79,13.87,13.54,27.73c-2.79,11.9-13.729,25.52-19.83,36.07
			c-5.76,9.93-11.979,25.78-20.72,33.4c-9.67,8.44-22.91,6.67-35.06,9.17c-34.08,6.99-57.73,46.06-81.19,69.96
			c-38.07,38.79-76.53,77.22-115.14,115.48c-10.04-8.67-20.021-17.41-30.011-26.13C506.8,286.41,542.95,250,579.2,213.7
			c23.31-23.34,67.38-52.7,77.77-84.44c2.67-8.14-1.01-25.7,0.98-29.59c4.37-8.53,26.649-17.62,34.189-22.14
			c12.24-7.35,24.61-14.51,36.931-21.72C745.51,46.2,745.7,43.78,759.01,57.09z"/>
		<path fill="#FFFFFF" d="M758.94,619.42c14.119,16.8,17.21,19.82,14.859,44.2c-2.99,31.08-22.58,54.729-57.75,46.31
			c-25.8-6.18-45.26-30.449-63.21-48.529c-94.42-95.2-187.18-192.07-280.47-288.36c-32.39-33.45-64.78-66.9-97.16-100.37
			c-0.09-0.1-0.19-0.15-0.28-0.24c-2.49-2.76-6.28-4.23-11-2.74c-52.71,16.65-102.24,19.03-146.76-21.19
			c-40-36.16-48.67-102.36-14.99-144.44c7.97,13.38,15.94,26.75,23.94,40.12c5.93,9.92,12.97,30.81,22.83,37.44
			c18.93,12.71,60.1,5.94,82.46,7.04c5.42,0.26,9.44-3.86,11.18-8.52c7.61-20.32,28.84-53.84,27.57-75.65
			c-0.6-10.23-10.5-21.99-15.21-30.48c-9.34-16.79-18.76-33.55-28.4-50.18c40.5-4.56,74.63,7.22,103.53,40.96
			c37.35,43.63,29.19,101.6-4.04,144.97c-3.06,3.97-1.54,10.79,1.81,14.05c99.64,97.23,206,187.02,310.169,279.27
			C679.84,540.11,722.9,576.51,758.94,619.42z"/>
		<path fill="#FFFFFF" d="M114.23,78.99c16.43,27.81,32.29,56.25,49.75,83.43c0.33-0.09,0.52-0.11,0.89-0.22
			c6.73-2.01,18.71,0.92,25.71,1.26c11.08,0.55,22.16,1.09,33.24,1.63c7.78-18.24,18.4-38.51,22.22-57.34
			c-0.39-1.39-1.26-5.42-4.09-9.37c-4.25-5.91-7.58-13.67-11.11-19.99c-10.74-19.27-21.48-38.53-32.77-57.48
			c-3.62-6.08-0.45-15.54,6.93-17.03c58.95-11.97,110.39,2.88,148.01,52.77c36.05,47.81,30.99,109.56-1.7,157.45
			c34.48,33.34,70.08,65.52,106.17,97.2c44.64-44.84,89.199-89.76,133.979-134.46c9.4-9.38,20.03-18.34,28.63-28.5
			c10.76-8.64,17.84-19.92,21.24-33.83c0.08-5.11,0.14-10.22,0.189-15.33c2.7-6.93,2.12-8.55,7.4-14.52
			c18.98-21.49,58.8-37.88,83.95-51.23c21.86-11.6,29.59,1.56,46.31,19.35c16.66,17.76,17.65,22.59,7.03,43.48
			c-10.89,21.37-26.13,62.69-46.75,76.36c-5.5,3.65-10.47,3.63-16.85,4.85c-19.141,3.69-27.17,1.4-42.88,15.16
			c-10.881,9.54-20.87,21.57-30.99,31.94c-44.54,45.68-89.61,90.82-134.931,135.72c77.2,66.56,154.87,132.6,226.521,204.71
			c28.89,29.09,72.28,64.96,59.95,110.47c-12.41,45.771-56.3,71.33-101.36,52.86c-31.79-13.04-55.08-42.94-78.8-67.08
			c-23.67-24.09-47.23-48.32-70.79-72.54c-43.66-44.88-87.18-89.91-130.771-134.87c-3.479,3.391-6.96,6.78-10.439,10.17
			c12.04,12.311,23.99,24.721,35.79,37.29c4.45,4.71,4.35,11.681,0,16.391c-20.28,22-36.97,33.79-65.7,37.81
			c-32.21,4.51-21.31,14.79-23.87,39.24c-1.39,13.189-6.14,21.49-13.8,31.93c-25.33,34.54-58.03,64.76-88.12,95.04
			c-20.01,20.11-42.42,57.04-74.41,41.64c-29.23-14.069-60.07-51.84-81.72-76.22c-16.28-18.33-44.43-40.07-31.88-65.95
			c8.51-17.58,29.6-37.17,42-52.109c16.74-20.15,34.3-39.58,53.49-57.42c13.48-12.53,28.85-28.141,45.8-36.131
			c10.1-4.76,53.91-5.329,56.16-12.21c6.73-18.989-1.95-37.31,7.28-55.47c6.33-12.47,17.8-23.72,27.72-33.23
			c4.82-4.64,11.54-4.13,16.39,0c14.56,12.35,28.66,25.19,42.58,38.2c3.91-3.859,7.81-7.729,11.71-11.6
			c-34.65-35.77-69.37-71.47-104-107.26c-64.79,18.77-131.8,12.68-177.33-44.7c-39.5-49.77-38.57-129.36,9.81-172.61
			C101.56,71.69,110.27,72.28,114.23,78.99z M162.53,162.78C159.45,161.69,157.52,163.85,162.53,162.78L162.53,162.78z
			 M773.8,663.62c2.351-24.38-0.74-27.4-14.859-44.2c-36.04-42.91-79.101-79.31-120.921-116.34
			C533.85,410.83,427.49,321.04,327.85,223.81c-3.35-3.26-4.87-10.08-1.81-14.05c33.23-43.37,41.39-101.34,4.04-144.97
			c-28.9-33.74-63.03-45.52-103.53-40.96c9.64,16.63,19.06,33.39,28.4,50.18c4.71,8.49,14.61,20.25,15.21,30.48
			c1.27,21.81-19.96,55.33-27.57,75.65c-1.74,4.66-5.76,8.78-11.18,8.52c-22.36-1.1-63.53,5.67-82.46-7.04
			c-9.86-6.63-16.9-27.52-22.83-37.44c-8-13.37-15.97-26.74-23.94-40.12C68.5,146.14,77.17,212.34,117.17,248.5
			c44.52,40.22,94.05,37.84,146.76,21.19c4.72-1.49,8.51-0.02,11,2.74c0.09,0.09,0.19,0.14,0.28,0.24
			c32.38,33.47,64.77,66.92,97.16,100.37c93.29,96.29,186.05,193.16,280.47,288.36c17.95,18.08,37.41,42.35,63.21,48.529
			C751.22,718.35,770.81,694.7,773.8,663.62z M772.55,84.82c3.25-13.86-3.01-17.19-13.54-27.73c-13.31-13.31-13.5-10.89-29.939-1.28
			c-12.32,7.21-24.69,14.37-36.931,21.72c-7.54,4.52-29.819,13.61-34.189,22.14c-1.99,3.89,1.689,21.45-0.98,29.59
			c-10.39,31.74-54.46,61.1-77.77,84.44C542.95,250,506.8,286.41,470.6,322.77c9.99,8.72,19.971,17.46,30.011,26.13
			c38.609-38.26,77.069-76.69,115.14-115.48c23.46-23.9,47.11-62.97,81.19-69.96c12.149-2.5,25.39-0.73,35.06-9.17
			c8.74-7.62,14.96-23.47,20.72-33.4C758.82,110.34,769.76,96.72,772.55,84.82z M406.73,521.23
			c4.659-3.341,8.939-7.431,13.029-11.671c-36.58-38.609-74.17-76.149-114.36-111c-7.55,7.47-15.05,16-17.43,25.49
			c-3.83,15.271,1.89,29.51-3.75,45.431c-7.41,22.729-28.62,22.06-48.65,23.75c-40.03,3.399-75.3,48.819-100.44,77.739
			c-11.55,13.271-42.98,40.811-45.98,57.181c-3.27,17.779,15.48,33.699,26.54,45.909c17.85,19.7,48.28,58.891,74.68,62.421
			c15.94,2.14,15.78-1.301,26.56-12.08c9.52-9.53,19.07-19.03,28.53-28.61c14.82-14.98,29.58-30.05,43.93-45.48
			c11.8-12.68,27.28-26.26,35.74-41.43c8.46-15.18,3.93-27.63,4.29-43.92c0.43-19.21,6.8-29.95,26.57-33.14
			C376.44,528.52,387.96,534.67,406.73,521.23z M395.86,451.68c3.53-3.439,7.06-6.88,10.6-10.319
			c-8.93-9.221-17.88-18.44-26.82-27.66c-3.73,3.7-7.46,7.399-11.19,11.1C377.69,433.66,386.83,442.61,395.86,451.68z"/>
	</g>
	<g>
	</g>
</g>
</svg>
