<?xml version="1.0" encoding="utf-8"?>
<!-- Generator: Adobe Illustrator 16.0.0, SVG Export Plug-In . SVG Version: 6.00 Build 0)  -->
<!DOCTYPE svg PUBLIC "-//W3C//DTD SVG 1.1//EN" "http://www.w3.org/Graphics/SVG/1.1/DTD/svg11.dtd">
<svg version="1.1" id="Layer_1" xmlns="http://www.w3.org/2000/svg" xmlns:xlink="http://www.w3.org/1999/xlink" x="0px" y="0px"
	 width="800px" height="800px" viewBox="0 0 800 800" enable-background="new 0 0 800 800" xml:space="preserve">
<path fill="#FFFFFF" d="M730.076,58.066H563.48c-39.267,0-94.128,22.711-121.896,50.49L161.737,388.404
	c-27.768,27.757-27.768,73.222,0,100.978l208.441,208.441c27.768,27.757,73.21,27.757,100.978,0l279.838-279.848
	c27.767-27.779,50.511-82.628,50.511-121.896V129.474C801.505,90.185,769.354,58.066,730.076,58.066z M634.863,296.08
	c-39.41,0-71.383-31.962-71.383-71.405c0-39.444,31.973-71.407,71.383-71.407c39.445,0,71.419,31.963,71.419,71.407
	C706.282,264.118,674.309,296.08,634.863,296.08z M56.674,455.715l254.659,254.658c-26.971,14.257-61.323,10.072-83.956-12.55
	L18.935,489.382c-27.768-27.756-27.768-73.221,0-100.978l279.848-279.848c27.768-27.779,82.607-50.49,121.885-50.49L56.674,422.049
	C47.422,431.301,47.422,446.463,56.674,455.715z"/>
</svg>
