<?xml version="1.0" encoding="utf-8"?>
<!-- Generator: Adobe Illustrator 16.0.0, SVG Export Plug-In . SVG Version: 6.00 Build 0)  -->
<!DOCTYPE svg PUBLIC "-//W3C//DTD SVG 1.1//EN" "http://www.w3.org/Graphics/SVG/1.1/DTD/svg11.dtd">
<svg version="1.1" id="Layer_1" xmlns="http://www.w3.org/2000/svg" xmlns:xlink="http://www.w3.org/1999/xlink" x="0px" y="0px"
	 width="800px" height="800px" viewBox="0 0 800 800" enable-background="new 0 0 800 800" xml:space="preserve">
<path fill="#FFFFFF" d="M723.834,234.504c-24.969,0-45.202,20.237-45.202,45.098c0,24.86,20.233,45.119,45.202,45.119
	c24.864,0,45.121-20.259,45.121-45.119C768.955,254.741,748.698,234.504,723.834,234.504z M75.02,234.504
	c-24.969,0-45.227,20.237-45.227,45.098c0,24.86,20.258,45.119,45.227,45.119c24.862,0,45.141-20.259,45.141-45.119
	C120.161,254.741,99.881,234.504,75.02,234.504z M589.566,152.409c-37.063,0-67.115,30.094-67.115,67.2
	c0,36.977,30.052,67.048,67.115,67.048c37.062,0,67.222-30.071,67.222-67.048C656.788,182.547,626.542,152.409,589.566,152.409z
	 M797.963,560.823h-76.515v-140.85c0-24.209-7.167-46.66-18.542-66.223c6.731-1.977,13.59-3.389,20.928-3.389
	c40.8,0,74.129,33.308,74.129,74.214V560.823z M209.247,152.409c-37.063,0-67.222,30.094-67.222,67.2
	c0,36.977,30.159,67.048,67.222,67.048c36.954,0,67.114-30.071,67.114-67.048C276.361,182.547,246.201,152.409,209.247,152.409z
	 M75.02,350.362c7.296,0,14.114,1.412,20.823,3.389c-11.508,19.563-18.521,42.013-18.521,66.223v140.85H0.808V424.576
	C0.808,383.67,34.113,350.362,75.02,350.362z M399.321,18.182c-54.717,0-99.314,44.533-99.314,99.292
	c0,54.758,44.554,99.357,99.314,99.357c54.779,0,99.333-44.599,99.333-99.357C498.698,62.714,454.1,18.182,399.321,18.182z
	 M696.847,613.237H579.599V398.934c0-29.464-7.73-56.865-20.367-81.444c9.598-2.844,19.673-4.864,30.223-4.864
	c59.169,0,107.393,48.094,107.393,107.348V613.237z M219.018,398.934v214.304H101.901V419.974
	c0-59.189,48.158-107.348,107.389-107.348c10.554,0,20.542,2.021,30.095,4.864C226.791,342.069,219.018,369.469,219.018,398.934z
	 M243.619,675.248h311.378V398.934c0-85.852-69.89-155.701-155.676-155.701c-85.918,0-155.702,69.849-155.702,155.701V675.248z"/>
</svg>
