<?xml version="1.0" encoding="utf-8"?>
<!-- Generator: Adobe Illustrator 16.0.0, SVG Export Plug-In . SVG Version: 6.00 Build 0)  -->
<!DOCTYPE svg PUBLIC "-//W3C//DTD SVG 1.1 Tiny//EN" "http://www.w3.org/Graphics/SVG/1.1/DTD/svg11-tiny.dtd">
<svg version="1.1" baseProfile="tiny" id="icon" xmlns="http://www.w3.org/2000/svg" xmlns:xlink="http://www.w3.org/1999/xlink"
	 x="0px" y="0px" width="508px" height="508px" viewBox="0 0 508 508" xml:space="preserve">
<g id="XMLID_1_">
	<g>
		<path fill="#FFFFFF" d="M448.47,101.23c11.98,70.29,1.91,141.51,1.45,212.209c-0.22,33.971,0.17,67.939-0.15,101.899
			c-0.22,22.92,5.722,54.641-7.288,75.13c-10.302,16.24-22.86,14.7-40.25,14.59c-21.07-0.14-42.062,2.11-63.172,1.932
			c-53.249-0.45-106.37,2.489-159.6,1.76c-30.18-0.42-71.05,5.9-87.09-27.12c-8.12-16.7-4.65-40-4.94-57.97
			c-0.37-23.2-0.7-46.41-0.96-69.62c-0.66-60.45-0.95-120.93,0.32-181.39c0.47-22.63-0.34-46.01,1.57-68.58
			c1.1-12.91,3.23-20.74,16-25.93c28.39-11.53,70.6-4.99,100.53-5.59c0.36-0.01,0.62,0.13,0.95,0.17
			c8.74-6.47,24.09-11.08,25.95-18.3c4.18-16.21-8.21-30.22,9.69-43.69c15.581-11.71,48.86-12.77,61.35,4.34
			c5.5,7.51,6.02,17.13,4.81,26.04c-2.02,14.77-9.479,15.52,4.42,24.62c4.28,2.8,8.592,5.29,12.73,7.79
			c0.24-0.02,0.42-0.12,0.67-0.12c26.91,0.93,53.851,0.78,80.78,1.16C433.83,74.94,443.66,73.01,448.47,101.23z M439.93,262.891
			c2.21-49.241,12.24-110.661-2.479-158.621c-6.352-20.71-15.79-18.08-36.09-18.35c-10.352-0.14-20.69-0.26-31.04-0.37
			c-9.94-0.11-19.87-0.22-29.802-0.39c4.392,4.52,7.712,9.98,9.28,17.35c0.49,2.31,0.892,4.48,1.22,6.54
			c21.352-0.36,54.57-5.32,55.962,20.47c1.42,26.46,0.52,53.26,0.67,79.76c0.368,67.72,0.68,135.46,0.1,203.19
			c-0.09,11.199,4.2,35.339-1.34,45.8c-4.5,8.511-13.892,8.301-22.66,8.659c-24.6,0.98-48.88,2.591-73.479,2.13
			c-30.25-0.578-60.629,0.642-90.879,2.37c-15.08,0.88-30.21,1.142-45.28-0.12c-7.88-0.67-26.83-0.729-32.33-5.22
			c-11.29-9.21-10-30.21-10.97-43.608c-4.12-57.23-1.17-114.521-2.93-171.78c-0.34-36.02,1.77-72.04,0.64-108.04
			c-0.35-11.05-4.24-25.29,6.71-31.58c10.5-6.04,36.08-3.02,51.05-2.07c0.1-2.58,0.19-5.04,0.15-7.11
			c-0.02-1.08,0.26-1.96,0.67-2.73c1.2-6.01,3.6-11.01,7.06-15.37c-29.23-1.01-84.62-5.04-93.7,15.52
			c-5.58,12.64-1.35,38.8-1.74,52.49c-0.74,25.94-1.09,51.89-1.25,77.83c-0.3,47,0.04,94,0.62,141
			c0.26,21.021,0.59,42.051,0.93,63.08c0.43,26.8-1.71,54.24,31.65,62.432c11.12,2.729,25.83,0.75,37.14,0.97
			c22.14,0.43,44.3,0.56,66.44,0.07c39.42-0.882,78.61-1.421,118.04-1.552c17.89-0.05,35.94-0.948,53.79-1.948
			c38.39-2.142,31.82-38.302,32.16-68.021C438.85,371.42,437.5,317.1,439.93,262.891z M396.52,378.27
			c0.2-59.699,0-119.42-0.35-179.128c-0.13-20.9-0.24-41.81-0.52-62.71c-0.04-2.73,1.318-11.7-0.262-14.07
			c0.62,0.94-7.729-0.38-11.43-0.34c-10.53,0.13-21.24-0.91-31.85-1.3c0.108,19.28-11.262,23.44-36.592,24.32
			c-19.898,0.69-39.75,0.23-59.658,0.42c-15.602,0.14-44.65,6.42-59.44-0.81c-8.24-4.04-10.08-14.12-10.3-24.21
			c-13.7-0.78-42.02-2.67-46.65,4.63c-5.33,8.4,0.84,42.4,0.74,52.27c-0.25,24.48-1.13,48.86-0.9,73.36
			c1.66,54.08-0.75,108.18,2.33,162.26c0.6,10.53-0.69,26.09,3.5,35.87c6.99,16.36,37.27,12,54.11,11.89
			c27.35-0.18,53.78-2.16,80.97-1.438c23.98,0.63,48.71-1.28,72.55-3.271c8.07-0.67,37.4,4.12,42.642-0.93
			c1.53-1.48,0.47-11.79,0.52-13.83C396.48,420.27,396.45,399.27,396.52,378.27z M339.32,115.67c1.87-7.71-1.521-15.09-5.65-20.62
			c-10.08-13.54-29.64-19.6-42.62-30.45c-2.02-1.68-1.938-4.8-0.899-6.92c3.931-8.02,9.551-20.74,6.109-29.85
			c-5.688-15.06-27.51-16.46-40.068-11.59c-20.911,8.11-15.21,26.27-11.75,42.8c0.49,2.34-0.26,5.33-2.62,6.45
			c-15.2,7.21-41.63,17.7-43.97,36.41c0.1,5.39-0.71,11.24,0.16,16.56c1.63,9.91-1.97,10.99,10.07,15.8
			c5.14,2.06,14.78,0.56,20.31,0.56c21.75,0.03,43.53-0.49,65.28-0.72C311.3,133.91,334.12,137.15,339.32,115.67z"/>
		<path fill="#FFFFFF" d="M396.17,199.14c0.35,59.709,0.55,119.43,0.35,179.129c-0.068,21-0.038,42-0.59,62.979
			c-0.05,2.04,1.012,12.35-0.52,13.83c-5.24,5.05-34.57,0.26-42.641,0.93c-23.841,1.99-48.569,3.9-72.551,3.271
			c-27.189-0.722-53.62,1.26-80.97,1.438c-16.84,0.11-47.12,4.472-54.11-11.89c-4.19-9.78-2.9-25.34-3.5-35.87
			c-3.08-54.08-0.67-108.18-2.33-162.26c-0.23-24.5,0.65-48.88,0.9-73.36c0.1-9.87-6.07-43.87-0.74-52.27
			c4.63-7.3,32.95-5.41,46.65-4.63c0.22,10.09,2.06,20.17,10.3,24.21c14.79,7.23,43.84,0.95,59.44,0.81
			c19.908-0.19,39.76,0.27,59.658-0.42c25.33-0.88,36.7-5.04,36.592-24.32c10.608,0.39,21.318,1.43,31.85,1.3
			c3.7-0.04,12.05,1.28,11.43,0.34c1.58,2.37,0.222,11.34,0.262,14.07C395.93,157.33,396.04,178.24,396.17,199.14z M344.28,395.73
			c7.18-0.951,7.278-12.381,0-11.422c-40.271,5.312-80.021-7.318-119.7,0.012c-7.22,1.34-4.16,12.35,3.04,11.02
			C265.96,388.25,305.17,400.891,344.28,395.73z M344.54,332.76c7.33-0.318,7.37-11.74,0-11.43c-20.51,0.88-40.99,1.38-61.521,1.07
			c-20.74-0.301-39.681-2.58-59.771,2.72c-7.11,1.87-4.09,12.89,3.04,11.01c21.01-5.54,42.47-2.39,64.07-2.22
			C308.44,334.07,326.48,333.529,344.54,332.76z M343.21,270.59c7.3-0.479,7.36-11.91,0-11.43c-38.97,2.56-77.84-0.221-117.11,1.09
			c-7.34,0.24-7.37,11.66,0,11.42c20.36-0.68,40.66-0.9,61.009,0.18C306.82,272.91,323.83,271.85,343.21,270.59z M341.25,209.66
			c7.35,0.32,7.34-11.11,0-11.42c-8.93-0.38-17.76-2.04-26.69-1.75c-11.578,0.39-22.648,3.33-34.358,2.64
			c-17.99-1.07-34.02-2.46-52.14-0.59c-7.24,0.75-7.31,12.18,0,11.43c18.17-1.88,34.089-0.61,52.14,0.58
			c8.49,0.56,16.13-0.57,24.479-1.51C317.36,207.61,328.67,209.13,341.25,209.66z M206.37,269.29c1.59-2.08,0.64-5.181-0.89-6.92
			c-3.32-3.79-11.19-2.479-15.39-1.45c-7.13,1.78-4.11,12.8,3.04,11.03c0.18-0.05,5.29-0.341,4.27-1.511
			c0-0.039-0.01-0.08-0.02-0.131c2.45,1.892,6.49,2.25,8.93-0.93C206.33,269.359,206.35,269.32,206.37,269.29z M204.3,211.63
			c7.29,0.81,7.24-10.62,0-11.42c-3.51-0.39-6.94-0.5-10.45-0.34c-7.33,0.34-7.37,11.76,0,11.43
			C197.37,211.14,200.8,211.25,204.3,211.63z M202.45,337.561c7.35,0.061,7.36-11.359,0-11.431c-3.42-0.03-6.83-0.05-10.24-0.08
			c-7.36-0.069-7.37,11.36,0,11.421C195.62,337.5,199.03,337.529,202.45,337.561z M201.83,396.07c7.33-0.291,7.37-11.721,0-11.432
			c-3.14,0.12-6.27,0.24-9.42,0.36c-7.33,0.29-7.36,11.71,0,11.42C195.56,396.311,198.69,396.189,201.83,396.07z"/>
		<path fill="#333333" d="M344.28,384.311c7.278-0.961,7.18,10.471,0,11.42c-39.11,5.16-78.32-7.479-116.66-0.391
			c-7.2,1.33-10.26-9.68-3.04-11.02C264.26,376.99,304.01,389.62,344.28,384.311z"/>
		<path fill="#333333" d="M344.54,321.33c7.37-0.311,7.33,11.109,0,11.43c-18.06,0.771-36.1,1.311-54.181,1.15
			c-21.601-0.17-43.061-3.32-64.069,2.22c-7.13,1.88-10.15-9.14-3.04-11.01c20.09-5.3,39.03-3.021,59.77-2.72
			C303.55,322.71,324.03,322.21,344.54,321.33z"/>
		<path fill="#333333" d="M343.21,259.16c7.36-0.48,7.3,10.949,0,11.43c-19.38,1.26-36.39,2.32-56.101,1.26
			c-20.351-1.08-40.649-0.858-61.009-0.18c-7.37,0.24-7.34-11.18,0-11.42C265.37,258.939,304.24,261.72,343.21,259.16z"/>
		<path fill="#333333" d="M341.25,198.24c7.34,0.31,7.35,11.74,0,11.42c-12.58-0.53-23.89-2.05-36.57-0.62
			c-8.35,0.94-15.988,2.07-24.479,1.51c-18.051-1.19-33.97-2.46-52.14-0.58c-7.31,0.75-7.24-10.68,0-11.43
			c18.12-1.87,34.15-0.48,52.14,0.59c11.71,0.69,22.78-2.25,34.358-2.64C323.49,196.2,332.32,197.86,341.25,198.24z"/>
		<path fill="#FFFFFF" d="M268.92,31.74c7.37,0,7.359,11.43,0,11.43c-0.07,0-0.141,0-0.22,0c-7.37,0-7.351-11.43,0-11.43
			C268.779,31.74,268.85,31.74,268.92,31.74z"/>
		<path fill="#FFFFFF" d="M244.68,75.84c7.36,0,7.35,11.42,0,11.42C237.31,87.26,237.33,75.84,244.68,75.84z"/>
		<path fill="#FFFFFF" d="M227.62,83.98c6.61-3.15,12.4,6.7,5.77,9.86c-4.36,2.08-8.39,4.82-11.18,8.85
			c-3.02,4.37-1.26,9.59-1.67,14.58c-0.6,7.28-12.02,7.32-11.43,0c0.6-7.22-1.2-13.76,3.11-20.19
			C216.06,91.35,221.43,86.93,227.62,83.98z"/>
		<path fill="#333333" d="M205.48,262.37c1.53,1.739,2.48,4.84,0.89,6.92c-0.02,0.03-0.04,0.069-0.06,0.09
			c-2.44,3.181-6.48,2.82-8.93,0.931c0.01,0.051,0.02,0.09,0.02,0.131c1.02,1.17-4.09,1.459-4.27,1.51
			c-7.15,1.77-10.17-9.25-3.04-11.03C194.29,259.891,202.16,258.58,205.48,262.37z"/>
		<path fill="#333333" d="M204.3,200.21c7.24,0.8,7.29,12.23,0,11.42c-3.5-0.38-6.93-0.49-10.45-0.33c-7.37,0.33-7.33-11.09,0-11.43
			C197.36,199.71,200.79,199.82,204.3,200.21z"/>
		<path fill="#333333" d="M202.45,326.13c7.36,0.07,7.35,11.49,0,11.431c-3.42-0.029-6.83-0.061-10.24-0.09
			c-7.37-0.061-7.36-11.49,0-11.421C195.62,326.08,199.03,326.1,202.45,326.13z"/>
		<path fill="#333333" d="M201.83,384.641c7.37-0.291,7.33,11.141,0,11.43c-3.14,0.121-6.27,0.24-9.42,0.351
			c-7.36,0.29-7.33-11.13,0-11.42C195.56,384.88,198.69,384.76,201.83,384.641z"/>
	</g>
</g>
<image width="1693" height="1745" xlink:href="28773789.png"  transform="matrix(0.24 0 0 0.24 0 792)">
</image>
</svg>
