<?xml version="1.0" encoding="utf-8"?>
<!-- Generator: Adobe Illustrator 16.0.0, SVG Export Plug-In . SVG Version: 6.00 Build 0)  -->
<!DOCTYPE svg PUBLIC "-//W3C//DTD SVG 1.1//EN" "http://www.w3.org/Graphics/SVG/1.1/DTD/svg11.dtd">
<svg version="1.1" id="Objects" xmlns="http://www.w3.org/2000/svg" xmlns:xlink="http://www.w3.org/1999/xlink" x="0px" y="0px"
	 width="800px" height="800px" viewBox="0 0 800 800" enable-background="new 0 0 800 800" xml:space="preserve">
<g id="User-Add">
	<g id="XMLID_1_">
		<g>
			<polygon fill="#58595B" points="676.99,621.3 676.99,636.44 610.93,636.44 610.93,671.52 610.93,702.49 561.39,702.49 
				561.39,671.52 561.39,636.44 495.34,636.44 495.34,621.99 561.39,621.99 561.39,586.9 561.39,555.93 610.93,555.93 610.93,586.9 
				610.93,621.99 			"/>
			<path fill="#FFFFFF" d="M725.15,607.54c0,5.94-0.37,11.79-1.08,17.54c-8.641-70-68.311-124.19-140.66-124.19
				c-21.521,0-41.851,4.931-60.12,13.521c-43.14,20.27-74.47,61.54-80.54,110.71c-0.71-5.76-1.08-11.63-1.08-17.58
				c0-56.771,33.45-105.58,81.62-128.22c18.27-8.58,38.6-13.521,60.12-13.521C661.7,465.8,725.15,529.26,725.15,607.54z"/>
			<path fill="#FFFFFF" d="M724.07,625.08c0.71,5.75,1.08,11.61,1.08,17.55c0,78.271-63.45,141.75-141.74,141.75
				c-33.601,0-64.41-11.76-88.71-31.29c-32.311-25.979-53.03-65.78-53.03-110.46c0-5.93,0.36-11.78,1.08-17.51
				c4.65,37.47,23.94,70.36,51.95,92.88c24.3,19.53,55.109,31.29,88.71,31.29C655.76,749.29,715.44,695.09,724.07,625.08z"/>
			<path fill="#FFFFFF" d="M583.41,500.89c72.35,0,132.02,54.19,140.66,124.19c-8.63,70.01-68.311,124.21-140.66,124.21
				c-33.601,0-64.41-11.76-88.71-31.29c-28.01-22.52-47.3-55.41-51.95-92.88c6.07-49.17,37.4-90.44,80.54-110.71
				C541.56,505.82,561.89,500.89,583.41,500.89z M676.99,671.52V636.44V621.3v-35.08L610.93,586.9V555.93v-35.09h-49.54v35.09V586.9
				h-66.05v35.09v14.45v35.079h66.05v30.971v35.09h49.54v-35.09V671.52H676.99z"/>
			<rect x="610.93" y="636.44" fill="#FFFFFF" width="66.061" height="35.079"/>
			<polygon fill="#58595B" points="676.99,586.22 676.99,621.3 610.93,621.99 610.93,586.9 			"/>
			<rect x="561.39" y="702.49" fill="#FFFFFF" width="49.54" height="35.09"/>
			<rect x="561.39" y="520.84" fill="#58595B" width="49.54" height="35.09"/>
			<rect x="495.34" y="636.44" fill="#FFFFFF" width="66.05" height="35.079"/>
			<rect x="495.34" y="586.9" fill="#58595B" width="66.05" height="35.09"/>
			<path fill="#FFFFFF" d="M515.3,186.72c4.13,3.32,19.32,17.67,10.181,49.4c-3.181-8.14-8.091-12.63-10.181-14.31
				c-5.63-4.5-11.22,3.35-11.22,3.35l-0.58,1.69c0.61-12.56,0.35-24.21-0.68-35.02l0.68-0.06l0.58-1.69
				C504.08,190.08,509.67,182.22,515.3,186.72z"/>
			<path fill="#FFFFFF" d="M525.48,236.12c5.3,13.64,5.699,37.5-20.311,75.44c0,0-5.33,11.43-18.52,2.22
				c-8.75,24.17-24.931,61.71-49.48,92.09c-2.72-6.88-2.9-19.26-1.92-32.74c25.62-30.77,42.42-69.64,51.4-94.44
				c13.189,9.21,18.52-2.22,18.52-2.22C516,260.67,522.26,247.31,525.48,236.12z"/>
			<path fill="#FFFFFF" d="M515.3,221.81c2.09,1.68,7,6.17,10.181,14.31c-3.221,11.19-9.48,24.55-20.311,40.35
				c0,0-5.33,11.43-18.52,2.22c-8.98,24.8-25.78,63.67-51.4,94.44c-0.98,13.48-0.8,25.86,1.92,32.74c-0.63,0.79-1.27,1.57-1.92,2.35
				c-1.02,13.98-0.78,26.771,2.23,33.471c3.77,8.5,17.43,16.579,33.35,23.529c-42.04,33.221-69.061,84.561-69.061,142.32
				c0,5.91,0.28,11.76,0.841,17.53c-0.561,5.779-0.841,11.63-0.841,17.56c0,42.4,14.561,81.38,38.931,112.26
				c-26.9,4.67-55.98,7.721-85.52,7.431c-2.14,0.02-8.46-0.09-8.46-0.101c0,0.011-6.44,0.12-8.59,0.101
				c-113.85,1.12-221.56-47.17-221.56-47.17c-41.01,6.25-69.61-20.801-79.63-32.181l10.1-77.46
				c8.96-97.6,98.73-114.42,116.68-120.05c17.95-5.61,83.02-23.56,91.99-43.77c3.01-6.7,3.25-19.49,2.23-33.471
				c-0.65-0.779-1.29-1.56-1.92-2.35c2.72-6.88,2.9-19.26,1.92-32.74c-25.62-30.77-42.42-69.64-51.39-94.44
				c-13.19,9.21-18.53-2.22-18.53-2.22c-10.83-15.79-17.08-29.15-20.31-40.34c3.17-8.14,8.1-12.64,10.19-14.32
				c5.62-4.5,11.22,3.35,11.22,3.35l0.58,1.69c-0.62-12.56-0.35-24.22,0.68-35.02C202.55,63.56,321.4,54.23,336.04,53.57
				c-0.3,0.06,1.33,0.17,10.68,0.41c9.22-0.24,10.89-0.35,10.63-0.41c14.94,0.7,133.33,10.19,145.47,138.26
				c1.029,10.81,1.29,22.46,0.68,35.02l0.58-1.69C504.08,225.16,509.67,217.31,515.3,221.81z"/>
			<path fill="#FFFFFF" d="M470.83,465.22c11.63,5.07,24.479,9.53,35.54,13.09c-56.72,26.66-97.49,81.61-103.76,146.761
				c-0.561-5.771-0.841-11.62-0.841-17.53C401.77,549.78,428.79,498.44,470.83,465.22z"/>
			<path fill="#FFFFFF" d="M506.37,443.22c-12.72,5.98-24.63,13.38-35.54,22c-15.92-6.95-29.58-15.029-33.35-23.529
				c-3.011-6.7-3.25-19.49-2.23-33.471c0.65-0.779,1.29-1.56,1.92-2.35c0.1,0.25,0.2,0.5,0.311,0.74
				C444.01,421.32,480.19,434.79,506.37,443.22z"/>
			<path fill="#FFFFFF" d="M469.73,749.1c-9.32,2.091-19.021,4.051-29.03,5.79c-24.37-30.88-38.931-69.859-38.931-112.26
				c0-5.93,0.28-11.78,0.841-17.56C407.42,675.15,432.61,719.25,469.73,749.1z"/>
			<path fill="#FFFFFF" d="M440.7,754.89c8.54,10.83,18.29,20.66,29.03,29.301c-34.381,7.72-74.021,13.619-114.55,13.22
				c-2.14,0.01-8.46-0.09-8.46-0.101c0,0.011-6.44,0.11-8.59,0.101c-113.85,1.12-221.56-47.17-221.56-47.17
				C64.96,758.11,33,713.22,33,713.22l3.94-30.25c10.02,11.38,38.62,38.431,79.63,32.181c0,0,107.71,48.29,221.56,47.17
				c2.15,0.02,8.59-0.09,8.59-0.101c0,0.011,6.32,0.12,8.46,0.101C384.72,762.61,413.8,759.56,440.7,754.89z"/>
			<path fill="#686868" d="M357.35,18.48c-0.35-0.02-0.64-0.03-0.88-0.04C356.84,18.44,357.24,18.46,357.35,18.48z"/>
			<path fill="#686868" d="M356.47,53.53c0.37,0,0.77,0.01,0.88,0.04C357,53.55,356.71,53.54,356.47,53.53z"/>
			<path fill="#686868" d="M337.16,18.44c-0.13,0-0.29,0-0.48,0.01C336.84,18.44,337.01,18.43,337.16,18.44z"/>
			<path fill="#686868" d="M336.04,53.57c0.13-0.03,0.72-0.04,1.12-0.04C336.9,53.53,336.52,53.54,336.04,53.57z"/>
			<path fill="#686868" d="M336.68,18.45c-0.09,0-0.19,0.01-0.3,0.01C336.47,18.45,336.57,18.44,336.68,18.45z"/>
			<path fill="#686868" d="M336.38,18.46c-0.07,0.01-0.14,0.01-0.22,0.01C336.22,18.46,336.3,18.46,336.38,18.46z"/>
			<path fill="#FFFFFF" d="M257.94,373.13c0.98,13.48,0.8,25.86-1.92,32.74c-24.55-30.38-40.73-67.92-49.47-92.09
				c-13.19,9.21-18.53-2.22-18.53-2.22c-26.01-37.94-25.61-61.8-20.31-75.43c3.23,11.19,9.48,24.55,20.31,40.34
				c0,0,5.34,11.43,18.53,2.22C215.52,303.49,232.32,342.36,257.94,373.13z"/>
			<path fill="#FFFFFF" d="M257.94,408.22c1.02,13.98,0.78,26.771-2.23,33.471c-8.97,20.21-74.04,38.159-91.99,43.77
				C145.77,491.09,56,507.91,47.04,605.51l-10.1,77.46c-2.59-2.939-3.94-4.84-3.94-4.84l14.04-107.7
				C56,472.82,145.77,456,163.72,450.37c17.95-5.61,83.02-23.561,91.99-43.76c0.11-0.24,0.21-0.49,0.31-0.74
				C256.65,406.66,257.29,407.44,257.94,408.22z"/>
			<path fill="#FFFFFF" d="M346.72,53.98c-9.35-0.24-10.98-0.35-10.68-0.41c0.48-0.03,0.86-0.04,1.12-0.04
				c-0.4,0-0.99,0.01-1.12,0.04c-14.64,0.66-133.49,9.99-145.66,138.26l-0.68-0.06C181.78,30.1,320.17,19.2,336.04,18.48
				c-0.3,0.06,1.33,0.18,10.68,0.42c9.22-0.24,10.89-0.36,10.63-0.42c16.2,0.76,154.05,11.87,146.15,173.29l-0.68,0.06
				C490.68,63.76,372.29,54.27,357.35,53.57c-0.11-0.03-0.51-0.04-0.88-0.04c0.24,0.01,0.53,0.02,0.88,0.04
				C357.61,53.63,355.94,53.74,346.72,53.98z"/>
			<path fill="#FFFFFF" d="M189.7,191.77l0.68,0.06c-1.03,10.8-1.3,22.46-0.68,35.02l-0.58-1.69c0,0-5.6-7.85-11.22-3.35
				c-2.09,1.68-7.02,6.18-10.19,14.32c-9.14-31.74,6.05-46.09,10.19-49.41c5.62-4.5,11.22,3.36,11.22,3.36L189.7,191.77z"/>
		</g>
		<g>
		</g>
	</g>
</g>
</svg>
