<?xml version="1.0" encoding="utf-8"?>
<!-- Generator: Adobe Illustrator 16.0.0, SVG Export Plug-In . SVG Version: 6.00 Build 0)  -->
<!DOCTYPE svg PUBLIC "-//W3C//DTD SVG 1.1 Tiny//EN" "http://www.w3.org/Graphics/SVG/1.1/DTD/svg11-tiny.dtd">
<svg version="1.1" baseProfile="tiny" id="Layer_1" xmlns="http://www.w3.org/2000/svg" xmlns:xlink="http://www.w3.org/1999/xlink"
	 x="0px" y="0px" width="800px" height="800px" viewBox="0 0 800 800" xml:space="preserve">
<path fill="#FFFFFF" d="M401.951,0c-74.029,0-134.366,60.249-134.366,134.334c0,74.084,60.278,134.423,134.366,134.423
	c74.109,0,134.39-60.339,134.39-134.423C536.399,60.248,476.061,0,401.951,0z"/>
<path fill="#FCFCFC" d="M107.35,787.5h589.226V451.223c0-104.483-132.254-189.491-294.588-189.491
	c-162.584,0-294.638,85.007-294.638,189.491V787.5L107.35,787.5z"/>
<path d="M616.173,431.449c-101.52,0-184.122,82.43-184.122,184.065c0,101.277,82.603,183.644,184.122,183.644
	C717.389,799.158,800,716.792,800,615.515C800,513.998,717.389,431.449,616.173,431.449z"/>
<g>
	<rect x="568.229" y="447.058" fill="#FFFFFF" width="95.594" height="336.492"/>
	<rect x="447.779" y="575.154" fill="#FFFFFF" width="336.492" height="95.594"/>
</g>
</svg>
